<svg xmlns:xlink="http://www.w3.org/1999/xlink" width="5.224ex" height="2.509ex" style="font-size: 15px; vertical-align: -0.671ex;" viewBox="0 -791.3 2249.4 1080.4" role="img" focusable="false" xmlns="http://www.w3.org/2000/svg">
<defs>
<path stroke-width="1" id="E1-MJCAL-53" d="M554 512Q536 512 536 522Q536 525 539 539T542 564Q542 588 528 604Q515 616 482 625T410 635Q374 635 349 624T312 594T295 561T290 532Q290 505 303 482T342 442T378 419T409 404Q435 391 451 383T494 357T535 323T562 282T574 231Q574 133 464 56T220 -22Q138 -22 78 21T18 123Q18 184 61 227T156 274Q178 274 178 263Q178 260 177 258Q172 247 164 239T151 227T136 218L127 213L124 202Q118 186 118 163Q120 124 165 86T292 48Q374 48 423 86T473 186V193Q473 267 347 327Q268 364 239 389Q191 431 191 486Q191 547 242 600T356 679T470 705Q472 705 478 705T489 704Q551 704 596 682T642 610Q642 566 621 545Q592 516 554 512Z"></path>
<path stroke-width="1" id="E1-MJCAL-46" d="M199 579Q181 579 181 590Q181 598 188 611T212 639T260 666T335 682Q336 682 349 682T383 682T431 682T493 683T561 683Q776 682 784 681Q826 673 829 647Q829 620 797 600T744 580Q728 580 728 595Q729 607 713 610Q698 613 598 614H500L499 610Q499 598 467 486T428 367Q428 365 551 365H674Q683 360 684 355Q687 346 677 329Q666 312 642 299T598 285Q586 285 582 296H402L394 277Q386 258 373 229T346 167T315 102T286 51Q265 22 225 -5T133 -32Q108 -32 87 -25T54 -7T33 15T21 35T18 47Q18 60 44 80T98 103Q108 103 111 101T119 88Q130 66 150 54T179 39T195 37Q199 37 203 43Q217 67 245 125T318 300T391 532Q393 543 398 564T406 598T409 613T339 614H269Q229 579 199 579Z"></path>
<path stroke-width="1" id="E1-MJMAIN-6C" d="M42 46H56Q95 46 103 60V68Q103 77 103 91T103 124T104 167T104 217T104 272T104 329Q104 366 104 407T104 482T104 542T103 586T103 603Q100 622 89 628T44 637H26V660Q26 683 28 683L38 684Q48 685 67 686T104 688Q121 689 141 690T171 693T182 694H185V379Q185 62 186 60Q190 52 198 49Q219 46 247 46H263V0H255L232 1Q209 2 183 2T145 3T107 3T57 1L34 0H26V46H42Z"></path>
<path stroke-width="1" id="E1-MJMAIN-69" d="M69 609Q69 637 87 653T131 669Q154 667 171 652T188 609Q188 579 171 564T129 549Q104 549 87 564T69 609ZM247 0Q232 3 143 3Q132 3 106 3T56 1L34 0H26V46H42Q70 46 91 49Q100 53 102 60T104 102V205V293Q104 345 102 359T88 378Q74 385 41 385H30V408Q30 431 32 431L42 432Q52 433 70 434T106 436Q123 437 142 438T171 441T182 442H185V62Q190 52 197 50T232 46H255V0H247Z"></path>
<path stroke-width="1" id="E1-MJMAIN-64" d="M376 495Q376 511 376 535T377 568Q377 613 367 624T316 637H298V660Q298 683 300 683L310 684Q320 685 339 686T376 688Q393 689 413 690T443 693T454 694H457V390Q457 84 458 81Q461 61 472 55T517 46H535V0Q533 0 459 -5T380 -11H373V44L365 37Q307 -11 235 -11Q158 -11 96 50T34 215Q34 315 97 378T244 442Q319 442 376 393V495ZM373 342Q328 405 260 405Q211 405 173 369Q146 341 139 305T131 211Q131 155 138 120T173 59Q203 26 251 26Q322 26 373 103V342Z"></path>
</defs>
<g stroke="currentColor" fill="currentColor" stroke-width="0" transform="matrix(1 0 0 -1 0 0)">
 <use xlink:href="#E1-MJCAL-53" x="0" y="0"></use>
 <use xlink:href="#E1-MJCAL-46" x="642" y="0"></use>
<g transform="translate(1362,-150)">
 <use transform="scale(0.707)" xlink:href="#E1-MJMAIN-6C" x="0" y="0"></use>
 <use transform="scale(0.707)" xlink:href="#E1-MJMAIN-69" x="278" y="0"></use>
 <use transform="scale(0.707)" xlink:href="#E1-MJMAIN-64" x="557" y="0"></use>
</g>
</g>
</svg>